<svg version="1.1" xmlns="http://www.w3.org/2000/svg" xmlns:xlink="http://www.w3.org/1999/xlink" preserveAspectRatio="xMidYMid meet" viewBox="0 0 22 22" width="22" height="22">
   <path d="M 11,-5.119e-5 C 4.9350922,-5.119e-5 0,4.9351625 0,11 0,17.064837 4.9350922,22 11,22 17.064908,22 22.00006,17.064837 22.00006,11 22.00006,4.9351625 17.064908,-5.119e-5 11,-5.119e-5 z" opacity="1" fill="#ffffff" fill-opacity="1" stroke="#ffffff" stroke-width="1" stroke-opacity="0" />
   <path d="M 11,-5.1e-5 C 4.9350922,-5.1e-5 0,4.9351627 0,11 0,17.064837 4.9350922,22 11,22 17.064908,22 22.00006,17.064837 22.00006,11 22.00006,4.9351627 17.064908,-5.1e-5 11,-5.1e-5 z m 0,1.546102 c 1.84226,0 3.521911,0.5442737 4.976574,1.4495216 L 11,7.9562647 5.9912151,2.9955726 C 7.440699,2.0903247 9.1577414,1.546051 11,1.546051 z M 5.1215226,3.5753608 10.629575,9.0189281 11,9.4057353 11.370425,9.0189281 16.846266,3.6075712 c 0.499175,0.3938773 0.974943,0.8033726 1.385066,1.2884183 l -5.79795,5.7334615 -0.128844,0.161052 0,0.193263 0,9.341033 C 11.869835,20.385939 11.45154,20.45364 11,20.45364 c -0.438955,0 -0.881856,-0.0388 -1.304539,-0.09664 l 0.03221,-9.341032 0,-0.225474 L 9.5666178,10.661661 3.7686676,4.8959895 C 4.1807401,4.4061446 4.6186795,3.9721514 5.1215226,3.5753608 z M 3.1566618,5.7334614 8.6969252,11.241449 8.6647142,20.163746 C 4.569829,19.124604 1.5461199,15.424549 1.5461199,11 c 0,-1.9511806 0.6042961,-3.7652018 1.6105419,-5.2665386 z m 15.6866762,0 C 19.855207,7.2347982 20.45394,9.0488194 20.45394,11 c 0,4.413563 -3.03215,8.113931 -7.118654,9.163746 l 0,-8.954507 z" opacity="1" fill="param(fill)#ffffff" fill-opacity="1" stroke="#ffffff" stroke-width="1" stroke-opacity="0"/>
</svg>
