<svg version="1.1" xmlns="http://www.w3.org/2000/svg" xmlns:xlink="http://www.w3.org/1999/xlink" preserveAspectRatio="xMidYMid meet" viewBox="0 0 18 18" width="18" height="18">
   <path d="m 17.6,9 c 0,4.749649 -3.850351,8.6 -8.6000002,8.6 C 4.2503511,17.6 0.4,13.749649 0.4,9 0.4,4.2503511 4.2503511,0.4 8.9999998,0.4 13.749649,0.4 17.6,4.2503511 17.6,9 z" opacity="1" fill="#ffffff" fill-opacity="1" stroke="#ffffff" stroke-width="1" stroke-opacity="0" />
   <path d="M12.76,8.93c0,2.038-1.652,3.69-3.69,3.69-2.0379,0-3.69-1.6521-3.69-3.69s1.6521-3.69,3.69-3.69,3.69,1.6521,3.69,3.69z" opacity="1" fill="param(fill)#ffffff" fill-opacity="1" stroke="#ffffff" stroke-width="1" stroke-opacity="0"/>
   <path d="m 9,0.09999962 c -4.9646,0 -9,4.03539998 -9,8.99999998 C 0,14.0646 4.0354,18.1 9,18.1 c 4.9646,0 9,-4.0354 9,-9.0000004 0,-4.9646 -4.0354,-8.99999998 -9,-8.99999998 z M 9,1.0999996 c 4.4242,0 8,3.5758 8,8 C 17,13.5242 13.4242,17.1 9,17.1 4.5758,17.1 1,13.5242 1,9.0999996 c 0,-4.4242 3.5758,-8 8,-8 z" opacity="1" fill="param(fill)#ffffff" fill-opacity="1" stroke="#ffffff" stroke-width="1" stroke-opacity="0"/>
</svg>