<svg version="1.1" xmlns="http://www.w3.org/2000/svg" xmlns:xlink="http://www.w3.org/1999/xlink" preserveAspectRatio="xMidYMid meet" viewBox="0 0 9 9" width="9" height="9">
<path d="M 4.5 1.5625 C 2.8769808 1.5625 1.5625 2.8769809 1.5625 4.5 C 1.5625 6.1230193 2.8769808 7.4375 4.5 7.4375 C 6.1230192 7.4375 7.4375 6.1230193 7.4375 4.5 C 7.4375 2.8769809 6.1230192 1.5625 4.5 1.5625 z" opacity="1" fill="#ffffff" fill-opacity="1" stroke="#ffffff" stroke-width="1" stroke-opacity="0" />
<path d="M 4.5,-2.7917956e-8 C 2.0279984,-2.7917956e-8 0,2.0279985 0,4.5 0,6.9720017 2.0279984,9.0000003 4.5,9.0000003 6.9720016,9.0000003 9.0000003,6.9720017 9.0000003,4.5 9.0000003,2.0279985 6.9720016,-2.7917956e-8 4.5,-2.7917956e-8 z M 4.5,1.5709091 c 1.6230192,0 2.9290912,1.3060718 2.9290912,2.9290909 0,1.6230193 -1.306072,2.9290912 -2.9290912,2.9290912 C 2.8769808,7.4290912 1.5709091,6.1230193 1.5709091,4.5 1.5709091,2.8769809 2.8769808,1.5709091 4.5,1.5709091 z" opacity="1" fill="param(fill)#ffffff" fill-opacity="1" stroke="#ffffff" stroke-width="1" stroke-opacity="0" />
</svg>
