<svg version="1.1" xmlns="http://www.w3.org/2000/svg" xmlns:xlink="http://www.w3.org/1999/xlink" preserveAspectRatio="xMidYMid meet" viewBox="0 0 16 16" width="16" height="16">
   <path d="m 15.6,8 c 0,4.225447 -3.430717,7.6 -7.6,7.6 C 3.8307182,15.6 0.40000001,12.225447 0.40000001,8 0.40000001,3.7745536 3.8307182,0.4 8,0.4 c 4.169283,0 7.6,3.3745536 7.6,7.6 z" opacity="1" fill="#ffffff" fill-opacity="1" stroke="#ffffff" stroke-width="1" stroke-opacity="0" />
   <path d="m 8.0025499,1.1384788 5.5585301,10.8314842 0,0 -11.1272596,0 z" opacity="1" fill="param(fill)#ffffff" fill-opacity="1" stroke="#ffffff" stroke-width="1" stroke-opacity="0"/>
   <path d="M 8.0000002,1.3472289e-8 C 3.5879549,1.3472289e-8 0,3.5879549 0,8.0000002 0,12.412045 3.5879549,16 8.0000002,16 12.412045,16 16,12.412045 16,8.0000002 16,3.5879549 12.412045,1.3472289e-8 8.0000002,1.3472289e-8 z m 0,1.179224386527711 c 3.7781688,0 6.8206738,3.0425049 6.8206738,6.8206738 0,3.7781688 -3.042505,6.8206738 -6.8206738,6.8206738 -3.7781689,0 -6.8206738,-3.042403 -6.8206738,-6.8206738 0,-3.7781689 3.0425049,-6.8206738 6.8206738,-6.8206738 z" opacity="1" fill="param(fill)#ffffff" fill-opacity="1" stroke="#ffffff" stroke-width="1" stroke-opacity="0"/>
</svg>